<svg width="193" height="137" viewBox="0 0 193 137" fill="none" xmlns="http://www.w3.org/2000/svg">
<path d="M79.7162 28.063H93.0934V89.938H79.7162V28.063ZM59.6504 71.3755H73.0276V89.938H59.6504V71.3755ZM99.782 59.0005H113.159V89.938H99.782V59.0005ZM119.848 46.6255H133.225V89.938H119.848V46.6255Z" fill="#3DA9FC"/>
<path d="M31.4 128H24.68L24.16 115.44C24.08 112.96 23.9867 111.08 23.88 109.8H23.76C23.44 110.813 23.0667 112.387 22.64 114.52L22.44 115.52L19.68 128H12.96L10.64 116.76L10.24 114.76C9.68 112.28 9.29333 110.627 9.08 109.8H8.96C8.85333 111.133 8.76 113.307 8.68 116.32C8.65333 116.507 8.64 116.8 8.64 117.2L8.28 128H1.52L2.48 105.2H13.92L15.88 115.04L16.36 117.68C16.5733 116.853 16.7733 115.933 16.96 114.92L18.8 105.2H30.48L31.4 128ZM53.1409 109.6L48.3409 125C47.4076 127.96 46.5676 130.107 45.8209 131.44C45.0743 132.8 44.3276 133.747 43.5809 134.28C43.1543 134.573 42.4743 134.8 41.5409 134.96C40.6343 135.12 39.6476 135.2 38.5809 135.2C36.9809 135.2 35.7009 135.053 34.7409 134.76C34.7143 134.12 34.7409 133.333 34.8209 132.4C34.9009 131.493 35.0076 130.72 35.1409 130.08C36.2609 130.133 37.3543 130.16 38.4209 130.16C39.2209 130.16 39.8209 130.147 40.2209 130.12C40.6209 129.347 40.9943 128.533 41.3409 127.68L38.5809 127.52L32.4209 109.6H39.6609L42.8609 122.48L42.9009 123.24H43.0209L45.9009 109.6H53.1409ZM61.0216 105.2H77.3816V110.16H68.2216V114.68H75.7816V119.04H68.2216V128H61.0216V105.2ZM88.3325 128.52C85.1325 128.52 82.7325 127.773 81.1325 126.28C79.5592 124.76 78.7725 122.373 78.7725 119.12C78.7725 117.333 78.9325 115.773 79.2525 114.44C79.5992 113.08 80.0125 112.133 80.4925 111.6C81.1058 110.907 82.2258 110.333 83.8525 109.88C85.5058 109.427 87.0525 109.2 88.4925 109.2C91.9325 109.2 94.3858 109.933 95.8525 111.4C97.3192 112.867 98.0525 115.213 98.0525 118.44C98.0525 121.907 97.2658 124.453 95.6925 126.08C94.1192 127.707 91.6658 128.52 88.3325 128.52ZM88.4525 123.84C89.4925 123.84 90.1725 123.48 90.4925 122.76C90.8125 122.013 90.9725 120.707 90.9725 118.84C90.9725 117.533 90.9058 116.533 90.7725 115.84C90.6392 115.12 90.3858 114.6 90.0125 114.28C89.6658 113.933 89.1192 113.76 88.3725 113.76C87.3058 113.76 86.6925 113.853 86.5325 114.04C86.3192 114.227 86.1458 114.813 86.0125 115.8C85.8792 116.787 85.8125 117.813 85.8125 118.88C85.8125 120.693 85.9858 121.973 86.3325 122.72C86.7058 123.467 87.4125 123.84 88.4525 123.84ZM112.063 109.2C112.41 109.2 112.77 109.24 113.143 109.32C113.543 109.4 113.837 109.493 114.023 109.6C114.023 110.187 113.957 111.16 113.823 112.52C113.69 113.853 113.57 114.8 113.463 115.36C113.197 115.333 112.703 115.32 111.983 115.32C110.303 115.32 108.81 115.413 107.503 115.6V128H100.663V109.6H106.383L107.183 112.56H107.223C107.997 111.547 108.823 110.733 109.703 110.12C110.583 109.507 111.37 109.2 112.063 109.2ZM124.3 120.44C124.3 120.92 124.313 121.427 124.34 121.96C124.366 122.467 124.446 122.787 124.58 122.92C124.766 123.107 125.42 123.2 126.54 123.2L127.9 123.16C128.14 124.44 128.26 125.92 128.26 127.6C127.753 127.787 127.006 127.96 126.02 128.12C125.06 128.28 124.14 128.36 123.26 128.36C121.42 128.36 119.993 127.96 118.98 127.16C117.993 126.333 117.5 125.067 117.5 123.36V113.52H114.5V109.88L117.5 109.6L119.3 105.2L124.3 104.92V109.6H128.54V113.52H124.3V120.44ZM148.985 109.6V128H143.425L142.665 124.92C140.745 127.24 138.452 128.4 135.785 128.4C134.825 128.4 133.919 128.267 133.065 128C132.239 127.733 131.612 127.347 131.185 126.84C130.945 126.547 130.759 125.813 130.625 124.64C130.519 123.467 130.465 121.68 130.465 119.28V109.6H137.305V119.2C137.305 119.733 137.319 120.36 137.345 121.08C137.372 121.8 137.452 122.253 137.585 122.44C137.772 122.707 138.305 122.84 139.185 122.84L139.825 122.8C140.572 122.773 141.345 122.6 142.145 122.28V109.6H148.985ZM170.065 110.76C170.305 111.053 170.478 111.787 170.585 112.96C170.718 114.133 170.785 115.92 170.785 118.32V128H163.945V118.4V116.76C163.945 115.907 163.878 115.373 163.745 115.16C163.532 114.893 163.038 114.76 162.265 114.76C161.892 114.76 161.612 114.773 161.425 114.8C160.678 114.827 159.905 115 159.105 115.32V128H152.265V109.6H157.825L158.585 112.68C160.505 110.36 162.798 109.2 165.465 109.2C166.425 109.2 167.318 109.333 168.145 109.6C168.998 109.867 169.638 110.253 170.065 110.76ZM185.105 123.2C185.771 123.2 187.011 123.133 188.825 123C189.065 123 189.505 122.973 190.145 122.92L190.745 127.04C188.691 128 186.025 128.48 182.745 128.48C179.678 128.48 177.318 127.707 175.665 126.16C174.038 124.613 173.225 122.28 173.225 119.16C173.225 117.56 173.425 116.013 173.825 114.52C174.251 113.027 174.731 111.987 175.265 111.4C175.825 110.813 176.865 110.307 178.385 109.88C179.905 109.453 181.411 109.24 182.905 109.24C185.305 109.24 187.105 109.667 188.305 110.52C189.505 111.373 190.291 112.56 190.665 114.08C191.038 115.573 191.225 117.587 191.225 120.12C189.411 120.227 187.638 120.28 185.905 120.28H180.225C180.225 121.133 180.398 121.773 180.745 122.2C181.118 122.627 181.638 122.907 182.305 123.04C182.971 123.147 183.905 123.2 185.105 123.2ZM180.625 114C180.465 114.08 180.345 114.427 180.265 115.04C180.185 115.653 180.131 116.347 180.105 117.12H182.185C183.438 117.12 184.345 117.107 184.905 117.08C184.905 115.8 184.718 114.893 184.345 114.36C183.998 113.827 183.385 113.56 182.505 113.56C181.785 113.56 181.158 113.707 180.625 114Z" fill="black"/>
</svg>
